<svg width="24" height="28" viewBox="0 0 24 28" fill="none" xmlns="http://www.w3.org/2000/svg">
<path d="M22 0H20V3C20 4.654 18.654 6 17 6H7C5.346 6 4 4.654 4 3V0H2C0.898 0 0 0.898 0 2V26C0 27.122 0.878 28 2 28H22C23.122 28 24 27.122 24 26V2C24 0.878 23.122 0 22 0ZM11.708 17.708L7.708 21.708C7.512 21.902 7.256 22 7 22C6.744 22 6.488 21.902 6.292 21.708L4.292 19.708C3.902 19.318 3.902 18.684 4.292 18.294C4.682 17.904 5.316 17.904 5.706 18.294L7 19.586L10.292 16.294C10.682 15.904 11.316 15.904 11.706 16.294C12.096 16.684 12.098 17.316 11.708 17.708ZM11.708 9.708L7.708 13.708C7.512 13.902 7.256 14 7 14C6.744 14 6.488 13.902 6.292 13.708L4.292 11.708C3.902 11.318 3.902 10.684 4.292 10.294C4.682 9.904 5.316 9.904 5.706 10.294L7 11.586L10.292 8.294C10.682 7.904 11.316 7.904 11.706 8.294C12.096 8.684 12.098 9.316 11.708 9.708ZM19 20H15C14.448 20 14 19.552 14 19C14 18.448 14.448 18 15 18H19C19.552 18 20 18.448 20 19C20 19.552 19.552 20 19 20ZM19 12H15C14.448 12 14 11.552 14 11C14 10.448 14.448 10 15 10H19C19.552 10 20 10.448 20 11C20 11.552 19.552 12 19 12Z" fill="white"/>
</svg>
