<svg width="24" height="32" viewBox="0 0 24 32" fill="none" xmlns="http://www.w3.org/2000/svg">
<path d="M20.8066 0H3.1927C1.49526 0 0.114258 1.381 0.114258 3.07844V28.9216C0.114258 30.619 1.49526 32 3.1927 32H20.8066C22.504 32 23.885 30.619 23.885 28.9216V3.07844C23.885 1.381 22.504 0 20.8066 0ZM4.33357 5.3185C4.33357 4.80075 4.75332 4.381 5.27107 4.381H18.7281C19.2459 4.381 19.6656 4.80075 19.6656 5.3185V7.16962C19.6656 7.68738 19.2459 8.10713 18.7281 8.10713H5.27107C4.75332 8.10713 4.33357 7.68738 4.33357 7.16962V5.3185ZM7.48988 26.3697C7.48988 26.8875 7.07013 27.3072 6.55238 27.3072H5.27113C4.75338 27.3072 4.33363 26.8875 4.33363 26.3697V25.4815C4.33363 24.9638 4.75338 24.544 5.27113 24.544H6.55238C7.07013 24.544 7.48988 24.9638 7.48988 25.4815V26.3697ZM7.48988 20.8216C7.48988 21.3394 7.07013 21.7591 6.55238 21.7591H5.27113C4.75338 21.7591 4.33363 21.3394 4.33363 20.8216V19.9334C4.33363 19.4156 4.75338 18.9959 5.27113 18.9959H6.55238C7.07013 18.9959 7.48988 19.4156 7.48988 19.9334V20.8216ZM13.6546 26.3697C13.6546 26.8875 13.2348 27.3072 12.7171 27.3072H11.4358C10.918 27.3072 10.4983 26.8875 10.4983 26.3697V25.4815C10.4983 24.9638 10.918 24.544 11.4358 24.544H12.7171C13.2348 24.544 13.6546 24.9638 13.6546 25.4815V26.3697ZM13.6546 20.8216C13.6546 21.3394 13.2348 21.7591 12.7171 21.7591H11.4358C10.918 21.7591 10.4983 21.3394 10.4983 20.8216V19.9334C10.4983 19.4156 10.918 18.9959 11.4358 18.9959H12.7171C13.2348 18.9959 13.6546 19.4156 13.6546 19.9334V20.8216ZM13.6546 15.2734C13.6546 15.7913 13.2348 16.2109 12.7171 16.2109H5.27107C4.75332 16.2109 4.33357 15.7912 4.33357 15.2734V14.3852C4.33357 13.8674 4.75332 13.4477 5.27107 13.4477H12.7171C13.2348 13.4477 13.6546 13.8674 13.6546 14.3852V15.2734ZM19.8193 26.3697C19.8193 26.8875 19.3995 27.3072 18.8818 27.3072H17.6005C17.0828 27.3072 16.663 26.8875 16.663 26.3697V25.4815C16.663 24.9638 17.0828 24.544 17.6005 24.544H18.8818C19.3995 24.544 19.8193 24.9638 19.8193 25.4815V26.3697ZM19.8193 20.8216C19.8193 21.3394 19.3995 21.7591 18.8818 21.7591H17.6005C17.0828 21.7591 16.663 21.3394 16.663 20.8216V19.9334C16.663 19.4156 17.0828 18.9959 17.6005 18.9959H18.8818C19.3995 18.9959 19.8193 19.4156 19.8193 19.9334V20.8216ZM19.8193 15.2734C19.8193 15.7913 19.3995 16.2109 18.8818 16.2109H17.6005C17.0828 16.2109 16.663 15.7912 16.663 15.2734V14.3852C16.663 13.8674 17.0828 13.4477 17.6005 13.4477H18.8818C19.3995 13.4477 19.8193 13.8674 19.8193 14.3852V15.2734Z" fill="white"/>
</svg>
