<svg width="32" height="33" viewBox="0 0 32 33" fill="none" xmlns="http://www.w3.org/2000/svg">
<path d="M27.9004 9.00339C28.6294 4.53864 25.323 0.493652 21 0.493652C18.6846 0.493652 16.6322 1.66335 15.3579 3.46539C14.361 2.89735 13.2168 2.57415 12 2.57415C8.4672 2.57415 5.54623 5.29673 5.06886 8.8348C2.23304 9.06382 0 11.5283 0 14.5369V14.537C0 17.6968 2.46243 20.2584 5.49998 20.2584H9.41177V26.8466H7.36753C6.97901 25.7511 5.93286 24.9642 4.70588 24.9642C3.14905 24.9642 1.88235 26.2308 1.88235 27.7878C1.88235 29.3447 3.14905 30.6113 4.70588 30.6113C5.93286 30.6113 6.97901 29.8244 7.36753 28.7289H11.2941V20.2584H15.0588V12.7289H16.9412V20.2584H20.7059V28.7289H24.6325C25.021 29.8244 26.0671 30.6113 27.2941 30.6113C28.8511 30.6113 30.1176 29.3447 30.1176 27.7878C30.1176 26.2308 28.8511 24.9642 27.2941 24.9642C26.0671 24.9642 25.021 25.7511 24.6325 26.8466H22.5882V20.2584H26.5C29.5376 20.2584 32 17.6968 32 14.537V14.5369C32 11.8806 30.2596 9.64772 27.9004 9.00339Z" fill="#E6E6E6"/>
<path d="M15.0591 27.0084C13.9636 27.3969 13.1768 28.4431 13.1768 29.6701C13.1768 31.227 14.4435 32.4936 16.0003 32.4936C17.5572 32.4936 18.8238 31.227 18.8238 29.6701C18.8238 28.4431 18.0369 27.3969 16.9415 27.0084V20.2583H15.0591V27.0084Z" fill="#E6E6E6"/>
</svg>
