<svg width="32" height="32" viewBox="0 0 32 32" fill="none" xmlns="http://www.w3.org/2000/svg">
<g clip-path="url(#clip0_201_11849)">
<path d="M0 5.4375V11.7947C0 13.3875 3.91828 15.1624 9.54178 15.1624C15.1653 15.1624 19.0836 13.3875 19.0836 11.7947V5.4375C17.3677 6.90237 13.8311 7.8657 9.54178 7.8657C5.25242 7.8657 1.71591 6.90237 0 5.4375Z" fill="white"/>
<path d="M0 13.8555V19.6514C0 21.2442 3.91828 23.019 9.54178 23.019C15.1653 23.019 19.0836 21.2442 19.0836 19.6514V13.8555C17.3677 15.3203 13.8311 16.2837 9.54178 16.2837C5.25242 16.2837 1.71591 15.3203 0 13.8555Z" fill="white"/>
<path d="M0 21.7139V28.071C0 29.6639 3.91828 31.4387 9.54178 31.4387C15.1653 31.4387 19.0836 29.6639 19.0836 28.071V21.7139C17.3677 23.1787 13.8311 24.1421 9.54178 24.1421C5.25242 24.1421 1.71591 23.1787 0 21.7139Z" fill="white"/>
<path d="M19.0836 3.37355C19.0836 1.51348 14.8115 0.00585938 9.54178 0.00585938C4.27209 0.00585938 0 1.51348 0 3.37355C0 5.23334 4.27209 6.74123 9.54178 6.74123C14.8115 6.74123 19.0836 5.23334 19.0836 3.37355Z" fill="white"/>
<path d="M24.6958 7.86505V2.81352C24.6958 2.50356 24.9471 2.25224 25.2571 2.25224H28.7281C29.0013 3.02537 29.792 3.48909 30.6002 3.35041C31.4087 3.21174 31.9993 2.51096 31.9993 1.69096C31.9993 0.87069 31.4087 0.169911 30.6002 0.0312353C29.792 -0.107441 29.0013 0.356548 28.7281 1.12968H25.2571C24.3272 1.12968 23.5732 1.88335 23.5732 2.81352V7.86505C23.5732 8.17502 23.3219 8.42633 23.012 8.42633H20.2056V9.5489H23.012C23.9419 9.5489 24.6958 8.79495 24.6958 7.86505ZM29.7473 1.12968H30.8699V2.25224H29.7473V1.12968Z" fill="white"/>
<path d="M30.3086 14.0391C29.5971 14.0402 28.9635 14.4902 28.7281 15.1616H20.2056V16.2842H28.7281C29.0148 17.0894 29.8602 17.5512 30.6928 17.3572C31.5252 17.1634 32.0799 16.3757 31.9815 15.5267C31.8831 14.6776 31.1634 14.0374 30.3086 14.0391ZM30.8699 16.2842H29.7473V15.1616H30.8699V16.2842Z" fill="white"/>
<path d="M30.3086 28.6328C29.5971 28.6339 28.9635 29.0839 28.7281 29.7554H25.2571C24.9471 29.7554 24.6958 29.5041 24.6958 29.1941V25.8264C24.6958 24.8963 23.9419 24.1426 23.012 24.1426H20.2056V25.2651H23.012C23.3219 25.2651 23.5732 25.5165 23.5732 25.8264V29.1941C23.5732 30.124 24.3272 30.878 25.2571 30.878H28.7281C29.0148 31.6831 29.8602 32.1449 30.6928 31.9509C31.5252 31.7571 32.0799 30.9695 31.9815 30.1204C31.8831 29.2714 31.1634 28.6312 30.3086 28.6328ZM30.8699 30.878H29.7473V29.7554H30.8699V30.878Z" fill="white"/>
</g>
<defs>
<clipPath id="clip0_201_11849">
<rect width="32" height="32" fill="white"/>
</clipPath>
</defs>
</svg>
