<svg width="32" height="32" viewBox="0 0 32 32" fill="none" xmlns="http://www.w3.org/2000/svg">
<path d="M31.0625 22.5625H28.1875V19.75C28.1875 19.2318 27.7682 18.8125 27.25 18.8125H16.9375V16.9061C21.1569 16.7493 24.4375 15.5741 24.4375 14.125V10.375C24.4375 11.9312 20.6688 13.1875 16 13.1875C11.3313 13.1875 7.5625 11.9312 7.5625 10.375V14.125C7.5625 15.5741 10.8431 16.7494 15.0625 16.9061V18.8125H4.75C4.23181 18.8125 3.8125 19.2318 3.8125 19.75V22.5625H0.9375C0.419312 22.5625 0 22.9818 0 23.5V31.0625C0 31.5807 0.419312 32 0.9375 32H8.5C9.01819 32 9.4375 31.5807 9.4375 31.0625V23.5C9.4375 22.9818 9.01819 22.5625 8.5 22.5625H5.6875V20.6875H15.0625V22.5625H12.25C11.7318 22.5625 11.3125 22.9818 11.3125 23.5V31.0625C11.3125 31.5807 11.7318 32 12.25 32H19.75C20.2682 32 20.6875 31.5807 20.6875 31.0625V23.5C20.6875 22.9818 20.2682 22.5625 19.75 22.5625H16.9375V20.6875H26.3125V22.5625H23.5C22.9818 22.5625 22.5625 22.9818 22.5625 23.5V31.0625C22.5625 31.5807 22.9818 32 23.5 32H31.0625C31.5807 32 32 31.5807 32 31.0625V23.5C32 22.9818 31.5807 22.5625 31.0625 22.5625ZM4.75 28.1875C4.23225 28.1875 3.8125 27.7677 3.8125 27.25C3.8125 26.7321 4.23225 26.3125 4.75 26.3125C5.26775 26.3125 5.6875 26.7321 5.6875 27.25C5.6875 27.7677 5.26775 28.1875 4.75 28.1875ZM16 28.1875C15.4823 28.1875 15.0625 27.7677 15.0625 27.25C15.0625 26.7321 15.4823 26.3125 16 26.3125C16.5177 26.3125 16.9375 26.7321 16.9375 27.25C16.9375 27.7677 16.5177 28.1875 16 28.1875ZM27.25 28.1875C26.7323 28.1875 26.3125 27.7677 26.3125 27.25C26.3125 26.7321 26.7323 26.3125 27.25 26.3125C27.7677 26.3125 28.1875 26.7321 28.1875 27.25C28.1875 27.7677 27.7677 28.1875 27.25 28.1875Z" fill="white"/>
<path d="M16 5.6875C20.6599 5.6875 24.4375 4.42831 24.4375 2.875C24.4375 1.32169 20.6599 0 16 0C11.3401 0 7.5625 1.32169 7.5625 2.875C7.5625 4.42831 11.3401 5.6875 16 5.6875Z" fill="white"/>
<path d="M7.5625 8.5C7.5625 10.0562 11.3313 11.3125 16 11.3125C20.6687 11.3125 24.4375 10.0562 24.4375 8.5V4.75C24.4375 6.30619 20.6687 7.5625 16 7.5625C11.3313 7.5625 7.5625 6.30619 7.5625 4.75V8.5Z" fill="white"/>
</svg>
