<svg width="1440" height="1128" viewBox="0 0 1440 1128" fill="none" xmlns="http://www.w3.org/2000/svg">
    <g opacity="0.3">
        <circle cx="720" cy="408" r="718.5" stroke="#342F43" stroke-width="3" />
        <path
            d="M1264.26 407.28C1264.26 708.264 1020.26 952.26 719.28 952.26C418.296 952.26 174.3 708.264 174.3 407.28C174.3 106.296 418.296 -137.7 719.28 -137.7C1020.26 -137.7 1264.26 106.296 1264.26 407.28Z"
            stroke="#342F43" stroke-width="3" />
        <path
            d="M1104.42 407.28C1104.42 619.987 931.987 792.42 719.28 792.42C506.573 792.42 334.14 619.987 334.14 407.28C334.14 194.573 506.573 22.1401 719.28 22.1401C931.987 22.1401 1104.42 194.573 1104.42 407.28Z"
            stroke="#342F43" stroke-width="3" />
        <circle cx="720" cy="408" r="270.66" stroke="#342F43" stroke-width="3" />
        <ellipse cx="804.96" cy="151.68" rx="28.8" ry="28.8" fill="#312E3C" />
        <ellipse cx="74.16" cy="722.64" rx="15.12" ry="15.12" fill="#453772" />
        <ellipse cx="1265.04" cy="881.04" rx="15.1201" ry="15.12" fill="#453772" />
        <ellipse cx="178.56" cy="348.96" rx="28.8" ry="28.8" fill="#312E3C" />
        <ellipse cx="177.84" cy="348.24" rx="15.12" ry="15.12" fill="#453772" />
        <ellipse cx="804.24" cy="150.96" rx="15.1199" ry="15.12" fill="#453772" />
        <ellipse cx="547.92" cy="752.88" rx="15.12" ry="15.1201" fill="#453772" />
        <circle cx="719.281" cy="397.28" r="180.72" fill="#312E3C" />
        <circle cx="719.28" cy="397.28" r="131.819" fill="#373244" />
        <circle cx="718.218" cy="396.217" r="92.4861" fill="#3E3657" />
    </g>
</svg>