<svg xmlns="http://www.w3.org/2000/svg" xmlns:xlink="http://www.w3.org/1999/xlink" version="1.1" width="1000"
	height="1000" viewBox="0 0 1000 1000" xml:space="preserve">
	<desc>Created with Fabric.js 3.5.0</desc>
	<defs>
	</defs>
	<rect x="0" y="0" width="100%" height="100%" fill="rgba(255,255,255,0)" />
	<g transform="matrix(3.1108 0 0 3.1032 509.5353 528.6032)" id="332370">
		<g style="" vector-effect="non-scaling-stroke">
			<g transform="matrix(1 0 0 1 0 0)">
				<circle
					style="stroke: rgb(52,47,67); stroke-width: 0.75; stroke-dasharray: none; stroke-linecap: butt; stroke-dashoffset: 0; stroke-linejoin: miter; stroke-miterlimit: 4; is-custom-font: none; font-file-url: none; fill: none; fill-rule: nonzero; opacity: 0.3;"
					cx="0" cy="0" r="179.625" />
			</g>
			<g transform="matrix(1 0 0 1 -0.18 -0.1801)">
				<path
					style="stroke: rgb(52,47,67); stroke-width: 0.75; stroke-dasharray: none; stroke-linecap: butt; stroke-dashoffset: 0; stroke-linejoin: miter; stroke-miterlimit: 4; is-custom-font: none; font-file-url: none; fill: none; fill-rule: nonzero; opacity: 0.3;"
					transform=" translate(-179.82, -179.8199)"
					d="M 316.065 179.82 C 316.065 255.066 255.066 316.065 179.82 316.065 C 104.574 316.065 43.575 255.066 43.575 179.82 C 43.575 104.574 104.574 43.5747 179.82 43.5747 C 255.066 43.5747 316.065 104.574 316.065 179.82 Z"
					stroke-linecap="round" />
			</g>
			<g transform="matrix(1 0 0 1 -0.18 -0.1799)">
				<path
					style="stroke: rgb(52,47,67); stroke-width: 0.75; stroke-dasharray: none; stroke-linecap: butt; stroke-dashoffset: 0; stroke-linejoin: miter; stroke-miterlimit: 4; is-custom-font: none; font-file-url: none; fill: none; fill-rule: nonzero; opacity: 0.3;"
					transform=" translate(-179.82, -179.8201)"
					d="M 276.105 179.82 C 276.105 232.997 232.997 276.105 179.82 276.105 C 126.643 276.105 83.535 232.997 83.535 179.82 C 83.535 126.643 126.643 83.5352 179.82 83.5352 C 232.997 83.5352 276.105 126.643 276.105 179.82 Z"
					stroke-linecap="round" />
			</g>
			<g transform="matrix(1 0 0 1 0 0)">
				<circle
					style="stroke: rgb(52,47,67); stroke-width: 0.75; stroke-dasharray: none; stroke-linecap: butt; stroke-dashoffset: 0; stroke-linejoin: miter; stroke-miterlimit: 4; is-custom-font: none; font-file-url: none; fill: none; fill-rule: nonzero; opacity: 0.3;"
					cx="0" cy="0" r="67.665" />
			</g>
			<g transform="matrix(1 0 0 1 21.24 -64.08)">
				<ellipse
					style="stroke: none; stroke-width: 1; stroke-dasharray: none; stroke-linecap: butt; stroke-dashoffset: 0; stroke-linejoin: miter; stroke-miterlimit: 4; is-custom-font: none; font-file-url: none; fill: rgb(49,46,60); fill-rule: nonzero; opacity: 0.3;"
					cx="0" cy="0" rx="7.19999" ry="7.2" />
			</g>
			<g transform="matrix(1 0 0 1 61.02 -169.0198)">
				<ellipse
					style="stroke: none; stroke-width: 1; stroke-dasharray: none; stroke-linecap: butt; stroke-dashoffset: 0; stroke-linejoin: miter; stroke-miterlimit: 4; is-custom-font: none; font-file-url: none; fill: rgb(69,55,114); fill-rule: nonzero; opacity: 0.3;"
					cx="0" cy="0" rx="3.78001" ry="3.78" />
			</g>
			<g transform="matrix(1 0 0 1 -161.4601 78.66)">
				<ellipse
					style="stroke: none; stroke-width: 1; stroke-dasharray: none; stroke-linecap: butt; stroke-dashoffset: 0; stroke-linejoin: miter; stroke-miterlimit: 4; is-custom-font: none; font-file-url: none; fill: rgb(69,55,114); fill-rule: nonzero; opacity: 0.3;"
					cx="0" cy="0" rx="3.78" ry="3.78" />
			</g>
			<g transform="matrix(1 0 0 1 136.26 118.26)">
				<ellipse
					style="stroke: none; stroke-width: 1; stroke-dasharray: none; stroke-linecap: butt; stroke-dashoffset: 0; stroke-linejoin: miter; stroke-miterlimit: 4; is-custom-font: none; font-file-url: none; fill: rgb(69,55,114); fill-rule: nonzero; opacity: 0.3;"
					cx="0" cy="0" rx="3.78003" ry="3.78" />
			</g>
			<g transform="matrix(1 0 0 1 -135.36 -14.76)">
				<ellipse
					style="stroke: none; stroke-width: 1; stroke-dasharray: none; stroke-linecap: butt; stroke-dashoffset: 0; stroke-linejoin: miter; stroke-miterlimit: 4; is-custom-font: none; font-file-url: none; fill: rgb(49,46,60); fill-rule: nonzero; opacity: 0.3;"
					cx="0" cy="0" rx="7.2" ry="7.2" />
			</g>
			<g transform="matrix(1 0 0 1 -135.54 -14.94)">
				<ellipse
					style="stroke: none; stroke-width: 1; stroke-dasharray: none; stroke-linecap: butt; stroke-dashoffset: 0; stroke-linejoin: miter; stroke-miterlimit: 4; is-custom-font: none; font-file-url: none; fill: rgb(69,55,114); fill-rule: nonzero; opacity: 0.3;"
					cx="0" cy="0" rx="3.78" ry="3.78" />
			</g>
			<g transform="matrix(1 0 0 1 21.06 -64.26)">
				<ellipse
					style="stroke: none; stroke-width: 1; stroke-dasharray: none; stroke-linecap: butt; stroke-dashoffset: 0; stroke-linejoin: miter; stroke-miterlimit: 4; is-custom-font: none; font-file-url: none; fill: rgb(69,55,114); fill-rule: nonzero; opacity: 0.3;"
					cx="0" cy="0" rx="3.77998" ry="3.78" />
			</g>
			<g transform="matrix(1 0 0 1 -57.78 -123.3001)">
				<ellipse
					style="stroke: none; stroke-width: 1; stroke-dasharray: none; stroke-linecap: butt; stroke-dashoffset: 0; stroke-linejoin: miter; stroke-miterlimit: 4; is-custom-font: none; font-file-url: none; fill: rgb(69,55,114); fill-rule: nonzero; opacity: 0.3;"
					cx="0" cy="0" rx="3.77999" ry="3.78" />
			</g>
			<g transform="matrix(1 0 0 1 -43.02 86.22)">
				<ellipse
					style="stroke: none; stroke-width: 1; stroke-dasharray: none; stroke-linecap: butt; stroke-dashoffset: 0; stroke-linejoin: miter; stroke-miterlimit: 4; is-custom-font: none; font-file-url: none; fill: rgb(69,55,114); fill-rule: nonzero; opacity: 0.3;"
					cx="0" cy="0" rx="3.78" ry="3.78001" />
			</g>
			<g transform="matrix(1 0 0 1 -103.86 -146.7)">
				<ellipse
					style="stroke: none; stroke-width: 1; stroke-dasharray: none; stroke-linecap: butt; stroke-dashoffset: 0; stroke-linejoin: miter; stroke-miterlimit: 4; is-custom-font: none; font-file-url: none; fill: rgb(69,55,114); fill-rule: nonzero; opacity: 0.3;"
					cx="0" cy="0" rx="3.77999" ry="3.78" />
			</g>
			<g transform="matrix(1 0 0 1 -0.18 -2.68)">
				<circle
					style="stroke: none; stroke-width: 1; stroke-dasharray: none; stroke-linecap: butt; stroke-dashoffset: 0; stroke-linejoin: miter; stroke-miterlimit: 4; is-custom-font: none; font-file-url: none; fill: rgb(49,46,60); fill-rule: nonzero; opacity: 0.3;"
					cx="0" cy="0" r="45.18" />
			</g>
			<g transform="matrix(1 0 0 1 -0.18 -2.68)">
				<circle
					style="stroke: none; stroke-width: 1; stroke-dasharray: none; stroke-linecap: butt; stroke-dashoffset: 0; stroke-linejoin: miter; stroke-miterlimit: 4; is-custom-font: none; font-file-url: none; fill: rgb(55,50,68); fill-rule: nonzero; opacity: 0.3;"
					cx="0" cy="0" r="32.9548" />
			</g>
			<g transform="matrix(1 0 0 1 -0.446 -2.946)">
				<circle
					style="stroke: none; stroke-width: 1; stroke-dasharray: none; stroke-linecap: butt; stroke-dashoffset: 0; stroke-linejoin: miter; stroke-miterlimit: 4; is-custom-font: none; font-file-url: none; fill: rgb(62,54,87); fill-rule: nonzero; opacity: 0.3;"
					cx="0" cy="0" r="23.1215" />
			</g>
		</g>
	</g>
</svg>