<svg width="32" height="33" viewBox="0 0 32 33" fill="none" xmlns="http://www.w3.org/2000/svg">
<path d="M31.0625 19.9524H26.3406V16.4937C26.3406 15.9762 25.9213 15.5562 25.4031 15.5562H16.9375V13.0349H18.2625C18.78 13.0349 19.2 12.6155 19.2 12.0974C19.2 11.5799 18.78 11.1599 18.2625 11.1599H16.9375V9.86865H21.6594C22.1769 9.86865 22.5969 9.44865 22.5969 8.93115V1.43115C22.5969 0.913652 22.1769 0.493652 21.6594 0.493652C21.1619 0.493652 10.8369 0.493652 10.3406 0.493652C9.82312 0.493652 9.40312 0.913652 9.40312 1.43115V8.93115C9.40312 9.44865 9.82312 9.86865 10.3406 9.86865H15.0625V11.1599H13.7375C13.22 11.1599 12.8 11.5799 12.8 12.0974C12.8 12.6155 13.22 13.0349 13.7375 13.0349H15.0625V15.5562H6.59688C6.07875 15.5562 5.65938 15.9762 5.65938 16.4937V19.9524H0.9375C0.42 19.9524 0 20.3718 0 20.8899V28.3899C0 28.9074 0.42 29.3274 0.9375 29.3274H5.65925V30.6187H4.33444C3.81669 30.6187 3.39694 31.0384 3.39694 31.5562C3.39694 32.0739 3.81669 32.4937 4.33444 32.4937H8.85919C9.37694 32.4937 9.79669 32.0739 9.79669 31.5562C9.79669 31.0384 9.37694 30.6187 8.85919 30.6187H7.53431V29.3274H12.2563C12.7738 29.3274 13.1938 28.9074 13.1938 28.3899V25.5774H18.8062V28.3899C18.8062 28.9074 19.2262 29.3274 19.7437 29.3274H24.4657V30.6187H23.1409C22.6231 30.6187 22.2034 31.0384 22.2034 31.5562C22.2034 32.0739 22.6231 32.4937 23.1409 32.4937H27.6656C28.1834 32.4937 28.6031 32.0739 28.6031 31.5562C28.6031 31.0384 28.1834 30.6187 27.6656 30.6187H26.3408V29.3274H31.0625C31.58 29.3274 32 28.9074 32 28.3899V20.8899C32 20.3718 31.58 19.9524 31.0625 19.9524ZM17.875 4.24365C18.3925 4.24365 18.8125 4.66365 18.8125 5.18115C18.8125 5.69865 18.3925 6.11865 17.875 6.11865C17.3575 6.11865 16.9375 5.69865 16.9375 5.18115C16.9375 4.66365 17.3575 4.24365 17.875 4.24365ZM14.125 6.11865C13.6075 6.11865 13.1875 5.69865 13.1875 5.18115C13.1875 4.66365 13.6075 4.24365 14.125 4.24365C14.6425 4.24365 15.0625 4.66365 15.0625 5.18115C15.0625 5.69865 14.6425 6.11865 14.125 6.11865ZM4.72188 25.5774C4.20375 25.5774 3.78437 25.1574 3.78437 24.6399C3.78437 24.1218 4.20375 23.7024 4.72188 23.7024C5.23938 23.7024 5.65938 24.1218 5.65938 24.6399C5.65938 25.1574 5.23938 25.5774 4.72188 25.5774ZM8.47188 25.5774C7.95375 25.5774 7.53438 25.1574 7.53438 24.6399C7.53438 24.1218 7.95375 23.7024 8.47188 23.7024C8.98938 23.7024 9.40938 24.1218 9.40938 24.6399C9.40938 25.1574 8.98938 25.5774 8.47188 25.5774ZM13.1938 23.7024V20.8899C13.1938 20.3718 12.7738 19.9524 12.2563 19.9524H7.53438V17.4312H24.4656V19.9524H19.7437C19.2262 19.9524 18.8062 20.3718 18.8062 20.8899V23.7024C18.2102 23.7024 13.7699 23.7024 13.1938 23.7024ZM23.5281 25.5774C23.0106 25.5774 22.5906 25.1574 22.5906 24.6399C22.5906 24.1218 23.0106 23.7024 23.5281 23.7024C24.0463 23.7024 24.4656 24.1218 24.4656 24.6399C24.4656 25.1574 24.0463 25.5774 23.5281 25.5774ZM27.2781 25.5774C26.7606 25.5774 26.3406 25.1574 26.3406 24.6399C26.3406 24.1218 26.7606 23.7024 27.2781 23.7024C27.7963 23.7024 28.2156 24.1218 28.2156 24.6399C28.2156 25.1574 27.7963 25.5774 27.2781 25.5774Z" fill="#E6E6E6"/>
</svg>
