<svg width="32" height="33" viewBox="0 0 32 33" fill="none" xmlns="http://www.w3.org/2000/svg">
<g clip-path="url(#clip0_1691_456)">
<path d="M25 12.4937H24V8.49365C24 4.08165 20.412 0.493652 16 0.493652C11.588 0.493652 8 4.08165 8 8.49365V12.4937H7C5.34667 12.4937 4 13.839 4 15.4937V29.4937C4 31.1483 5.34667 32.4937 7 32.4937H25C26.6533 32.4937 28 31.1483 28 29.4937V15.4937C28 13.839 26.6533 12.4937 25 12.4937ZM10.6667 8.49365C10.6667 5.55232 13.0587 3.16032 16 3.16032C18.9413 3.16032 21.3333 5.55232 21.3333 8.49365V12.4937H10.6667V8.49365ZM17.3333 22.7897V25.827C17.3333 26.563 16.7373 27.1603 16 27.1603C15.2627 27.1603 14.6667 26.563 14.6667 25.827V22.7897C13.8733 22.327 13.3333 21.4763 13.3333 20.4937C13.3333 19.023 14.5293 17.827 16 17.827C17.4707 17.827 18.6667 19.023 18.6667 20.4937C18.6667 21.4763 18.1267 22.327 17.3333 22.7897Z" fill="#E6E6E6"/>
</g>
<defs>
<clipPath id="clip0_1691_456">
<rect width="32" height="32" fill="white" transform="translate(0 0.493652)"/>
</clipPath>
</defs>
</svg>
