<svg width="32" height="28" viewBox="0 0 32 28" fill="none" xmlns="http://www.w3.org/2000/svg">
<path d="M16 10.9141C19.003 10.9141 21.4375 8.47961 21.4375 5.47656C21.4375 2.47351 19.003 0.0390625 16 0.0390625C12.997 0.0390625 10.5625 2.47351 10.5625 5.47656C10.5625 8.47961 12.997 10.9141 16 10.9141Z" fill="white"/>
<path d="M27 10.9141C28.8985 10.9141 30.4375 9.37505 30.4375 7.47657C30.4375 5.57809 28.8985 4.03906 27 4.03906C25.1015 4.03906 23.5625 5.57809 23.5625 7.47657C23.5625 9.37505 25.1015 10.9141 27 10.9141Z" fill="white"/>
<path d="M5 10.9141C6.89848 10.9141 8.4375 9.37505 8.4375 7.47657C8.4375 5.57809 6.89848 4.03906 5 4.03906C3.10152 4.03906 1.5625 5.57809 1.5625 7.47657C1.5625 9.37505 3.10152 10.9141 5 10.9141Z" fill="white"/>
<path d="M8.38688 14.0005C7.03375 12.8919 5.80831 13.0387 4.24375 13.0387C1.90375 13.0387 0 14.9312 0 17.2568V24.0824C0 25.0924 0.824375 25.9136 1.83812 25.9136C6.21475 25.9136 5.6875 25.9928 5.6875 25.7249C5.6875 20.8883 5.11462 17.3413 8.38688 14.0005Z" fill="white"/>
<path d="M17.4883 13.064C14.7556 12.836 12.3802 13.0666 10.3314 14.7577C6.90287 17.504 7.56268 21.2017 7.56268 25.7252C7.56268 26.922 8.53643 27.914 9.75143 27.914C22.9441 27.914 23.4691 28.3395 24.2514 26.6071C24.508 26.0212 24.4377 26.2074 24.4377 20.6027C24.4377 16.1511 20.5831 13.064 17.4883 13.064Z" fill="white"/>
<path d="M27.7569 13.0395C26.1838 13.0395 24.9651 12.8942 23.6138 14.0014C26.8616 17.3173 26.3131 20.6223 26.3131 25.7257C26.3131 25.9953 25.8755 25.9145 30.0969 25.9145C31.1469 25.9145 32.0006 25.0638 32.0006 24.0182V17.2576C32.0006 14.932 30.0969 13.0395 27.7569 13.0395Z" fill="white"/>
</svg>
