<svg width="32" height="33" viewBox="0 0 32 33" fill="none" xmlns="http://www.w3.org/2000/svg">
<g clip-path="url(#clip0_1691_64)">
<path d="M31.0625 8.27051H26.6394V10.7336C26.6394 11.7324 26.1069 12.6155 25.2969 13.0968C25.5306 14.0093 25.2856 15.0105 24.5812 15.7186L22.4994 17.8093C21.7816 18.5314 20.77 18.769 19.8538 18.5293C19.3756 19.3536 18.485 19.8974 17.4756 19.8974H14.5244C13.525 19.8974 12.6419 19.3643 12.1606 18.5536C11.2576 18.7851 10.2552 18.5525 9.53938 17.8393L7.44875 15.7574C6.73313 15.0461 6.48562 14.033 6.7275 13.1111C5.90375 12.633 5.36062 11.7424 5.36062 10.7336V8.27051H0.9375C0.42 8.27051 0 8.69051 0 9.20801V22.8943H32V9.20801C32 8.69051 31.58 8.27051 31.0625 8.27051Z" fill="#E6E6E6"/>
<path d="M0 27.5816C0 28.0991 0.42 28.5191 0.9375 28.5191H13.1875V30.6184H10.2731C9.755 30.6184 9.33562 31.0384 9.33562 31.5559C9.33562 32.0734 9.755 32.4934 10.2731 32.4934H21.7269C22.245 32.4934 22.6644 32.0734 22.6644 31.5559C22.6644 31.0384 22.245 30.6184 21.7269 30.6184H18.8125V28.5191H31.0625C31.58 28.5191 32 28.0991 32 27.5816V24.769H0V27.5816Z" fill="#E6E6E6"/>
<path d="M8.01285 11.602L9.86473 11.8075L8.70354 13.2646C8.42635 13.6128 8.45485 14.1142 8.77054 14.4281L10.8624 16.5106C11.1774 16.8245 11.6788 16.8513 12.0259 16.5723L13.4539 15.4239L13.6559 17.2449C13.7049 17.6875 14.0787 18.0223 14.5242 18.0223H17.4756C17.9211 18.0223 18.295 17.6875 18.3439 17.2449L18.5495 15.393L20.0065 16.5542C20.3548 16.8314 20.8562 16.8029 21.17 16.4873L23.2525 14.3955C23.5664 14.0798 23.5932 13.579 23.3143 13.2319L22.1659 11.804L23.9869 11.6019C24.4295 11.553 24.7644 11.1785 24.7644 10.7336V7.78221C24.7644 7.33728 24.4295 6.96284 23.9869 6.9139L22.135 6.70834L23.2962 5.25128C23.5734 4.90303 23.5449 4.40165 23.2292 4.08778L21.1373 2.0054C20.8222 1.69153 20.3209 1.66471 19.9737 1.94365L18.5458 3.09209L18.3437 1.27109C18.2949 0.828527 17.921 0.493652 17.4755 0.493652H14.5241C14.0786 0.493652 13.7047 0.828527 13.6558 1.27109L13.4502 3.12296L11.9932 1.96178C11.645 1.68459 11.1436 1.71309 10.8297 2.02871L8.74716 4.12053C8.43329 4.43615 8.40648 4.93696 8.68541 5.28409L9.83379 6.71203L8.01279 6.91409C7.57023 6.96303 7.23535 7.33746 7.23535 7.7824V10.7338C7.23541 11.1786 7.57029 11.5531 8.01285 11.602ZM15.888 6.04696C15.9252 6.04521 15.9625 6.04465 15.9998 6.04465C17.7719 6.04465 19.2132 7.48653 19.2132 9.25809C19.2132 11.0297 17.7719 12.4715 15.9998 12.4715C15.9625 12.4715 15.9252 12.4709 15.888 12.4692C14.1677 12.4103 12.7864 10.9923 12.7864 9.25809C12.7864 7.5239 14.1677 6.10578 15.888 6.04696Z" fill="#E6E6E6"/>
</g>
<defs>
<clipPath id="clip0_1691_64">
<rect width="32" height="32" fill="white" transform="translate(0 0.493652)"/>
</clipPath>
</defs>
</svg>
