<svg width="28" height="33" viewBox="0 0 28 33" fill="none" xmlns="http://www.w3.org/2000/svg">
<path d="M27.432 8.73042C27.3937 7.88857 27.3937 7.08498 27.3937 6.2814C27.3937 5.63087 26.8962 5.13341 26.2457 5.13341C21.4625 5.13341 17.8272 3.75583 14.8042 0.809347C14.345 0.388421 13.6562 0.388421 13.197 0.809347C10.174 3.75583 6.5387 5.13341 1.75544 5.13341C1.10492 5.13341 0.607458 5.63087 0.607458 6.2814C0.607458 7.08498 0.607457 7.88857 0.569191 8.73042C0.416127 16.7663 0.18653 27.7869 13.6179 32.4171L14.0006 32.4937L14.3832 32.4171C27.7764 27.7869 27.585 16.8046 27.432 8.73042ZM13.0822 19.8659C12.8526 20.0572 12.5847 20.172 12.2786 20.172H12.2403C11.9342 20.172 11.6281 20.0189 11.4368 19.7893L7.87801 15.8479L9.59998 14.3173L12.3934 17.4168L18.5925 11.5238L20.1614 13.2076L13.0822 19.8659Z" fill="#E6E6E6"/>
</svg>
