<svg width="32" height="33" viewBox="0 0 32 33" fill="none" xmlns="http://www.w3.org/2000/svg">
<g clip-path="url(#clip0_1691_192)">
<path d="M23.125 0.493652H8.875C7.28975 0.493652 6 1.7834 6 3.36865V29.6187C6 31.2039 7.28975 32.4937 8.875 32.4937H23.125C24.7103 32.4937 26 31.2039 26 29.6187V3.36865C26 1.7834 24.7103 0.493652 23.125 0.493652ZM14 2.99365H18C18.5523 2.99365 19 3.4414 19 3.99365C19 4.5459 18.5523 4.99365 18 4.99365H14C13.4477 4.99365 13 4.5459 13 3.99365C13 3.4414 13.4477 2.99365 14 2.99365ZM16 21.9937C15.1729 21.9937 14.5 21.3207 14.5 20.4937C14.5 19.6666 15.1729 18.9937 16 18.9937C16.8271 18.9937 17.5 19.6666 17.5 20.4937C17.5 21.3207 16.8271 21.9937 16 21.9937ZM19.5358 17.372C19.3406 17.5673 19.0846 17.6649 18.8288 17.6649C18.5729 17.6649 18.3169 17.5673 18.1217 17.372C17.5552 16.8056 16.8018 16.4937 16 16.4937C15.1982 16.4937 14.4448 16.8056 13.8784 17.372C13.4879 17.7625 12.8547 17.7625 12.4642 17.372C12.0736 16.9815 12.0736 16.3483 12.4642 15.9578C13.4083 15.0137 14.6641 14.4937 16 14.4937C17.3359 14.4937 18.5917 15.0137 19.5358 15.9578C19.9264 16.3483 19.9264 16.9815 19.5358 17.372ZM22.0101 14.8978C21.8148 15.0929 21.5589 15.1905 21.3031 15.1905C21.047 15.1905 20.7911 15.0928 20.5958 14.8975C19.3687 13.6698 17.7365 12.9937 16 12.9937C14.2635 12.9937 12.6313 13.6698 11.4042 14.8975C11.0138 15.2881 10.3806 15.2882 9.98994 14.8978C9.59938 14.5073 9.59919 13.8742 9.98962 13.4836C11.5946 11.8779 13.7291 10.9937 16 10.9937C18.2709 10.9937 20.4054 11.8779 22.0104 13.4836C22.4008 13.8742 22.4006 14.5073 22.0101 14.8978Z" fill="#E6E6E6"/>
</g>
<defs>
<clipPath id="clip0_1691_192">
<rect width="32" height="32" fill="white" transform="translate(0 0.493652)"/>
</clipPath>
</defs>
</svg>
